<svg version="1.2" xmlns="http://www.w3.org/2000/svg" viewBox="0 0 1050 600" width="1050" height="600">
	<style>
		.s0 { fill: #000000 } 
	</style>
	<path id="Path 0" fill-rule="evenodd" class="s0" d="m352 135h43l0.01 164.5 7.61 9.5c4.19 5.23 8.8 10.99 12.88 16.13l-10.5 10.4c-5.77 5.72-10.27 10.56-10 10.76 0.27 0.2 4.55 3.21 9.5 6.69 4.95 3.49 10.46 7.4 15.5 11.02l-56.23 55.5 18.73 1 1 14.87 5.86-7.94c5.75-7.79 5.89-7.89 7.62-5.93 0.97 1.1 8.34 10.66 31.02 40.5l-8.25 6.64c-4.54 3.66-8.93 7.23-9.75 7.94-1.3 1.12 0.38 3.63 26 35.42l-7.57 7.25c-4.16 3.99-7.99 7.36-8.5 7.5-0.51 0.14-9.03-9.65-36.93-43.75v23h-21v-85h-8v21h-25v9h25v18h-25v16h25v21l-33.5-0.13-12-15.37-1-175.73-86.29 104.73 13.29 1 0.25 52.75c0.14 29.01-0.09 52.77-0.5 52.79-0.41 0.03-5.14-3.8-20.25-17.04l-0.07-28.5-19.43-22.88-0.5 48.38h-21v-74l-4.25-5.44c-2.34-3-4.81-5.47-5.5-5.5-0.92-0.05-1.25 2.68-1.25 20.94h-25v9h25v18h-25v16h25v21l-33.5-0.13-12-15.37-0.5-25c-0.28-13.75-0.39-93.51 0-329.5l167.36 0.5 18.82 29c10.36 15.95 18.71 29.55 18.57 30.21-0.14 0.67-8.91 11.81-19.5 24.75-10.59 12.95-19.25 23.76-19.25 24.04 0 0.27 10.24 9.35 22.75 20.16 12.51 10.82 23.43 20.24 24.25 20.95 1.31 1.12 1.16 1.7-1.19 4.59-1.49 1.81-3.85 4.76-7.81 9.8h32zm-166 87.5c0 12.92 0.22 23.5 0.5 23.5 0.27 0 9.72-10.58 21-23.5l20.5-23.5h-42zm-0.02 79.25c-0.01 25.95 0.36 45.32 0.85 44.75 0.48-0.55 17.44-20.13 37.68-43.5 20.25-23.38 37.76-43.52 38.9-44.78l2.09-2.27-79.5 0.05zm159.02 34.75c0 7.7 0.25 9.36 1.35 8.75 0.75-0.41 5.59-4.7 10.75-9.52l9.4-8.76-21.5 0.03zm-0.05 53c4.3-3.96 13.53-12.62 23.3-21.81l17.75-16.69h-41zm-141.88 47.29c5.73 6.76 10.53 12.28 10.67 12.25 0.14-0.02 0.25-6.34 0.25-14.04v-14c-23.93-0.06-24.43 0.02-22.92 1.72 0.87 0.98 6.27 7.31 12 14.07zm185.92 19.94c-1.93 2.57-3.84 5.26-4.25 5.97-0.59 1.03 1.16 1.3 8.25 1.3h9c-2.99-4.26-5.13-6.95-6.68-8.72l-2.82-3.23zm545.5-36.23v21l-19.5 0.5 0.04 56.5 17.04 13-0.04 13.25c-0.03 9.92-0.36 13.25-1.29 13.25-0.69 0-8.23-5.42-16.75-12.05-8.53-6.62-16.51-12.92-20-15.95v-68h-20l-0.17-10.33c-0.09-5.68 0.22-10.64 0.68-11.02 0.47-0.37 14.16-0.56 59.99-0.15zm-152.31-381.67l2 127.67 4.48 5c3.35 3.74 5.01 6.78 6.55 12 1.56 5.31 1.89 8.33 1.38 12.5-0.37 3.03-1.72 7.75-3 10.5-1.28 2.75-3.96 6.69-9.6 12.5v67.5c0 37.13-0.34 67.5-0.75 67.51-0.41 0-6.15-5.4-24.75-24.02l-13.58 0.01c-7.47 0-13.89 0.23-14.25 0.5-0.37 0.28 10.92 13.14 25.08 28.58 14.16 15.44 25.88 28.37 26.04 28.75 0.16 0.37-5.75 7.65-26.56 31.67l41.27 1 0.5 21.5h-25v9h25v18h-25v16h25v21l-33.5-0.12-12.55-16.38 0.05-68.5h-24l8.25 9.12c4.54 5.02 8.59 9.29 9 9.5 0.41 0.21 0.75 19.73 0.75 43.38 0 28-0.35 43-1 43-0.55 0-5.28-3.82-20-17l-0.1-56.5-14.02 15-13.88-14.5v53h-21v-69l-6.75-7.55c-6.54-7.31-6.71-7.63-5.38-10.25 0.75-1.48 5.7-8.43 20.63-28.16l26.25-0.02c16.82-0.01 26.25-0.38 26.25-1.02 0-0.55-12.6-14.95-28-32-15.4-17.05-27.89-31.38-27.75-31.85 0.14-0.48 4.07-6.53 17.25-26.07l31-0.07-44-44.01h-96.5v-37h-13v-52h12v-31h98.5zm-79.62 389.72c3.81 4.15 7.15 7.53 7.42 7.5 0.28-0.02 2.53-2.38 5-5.25 2.48-2.86 5.29-6.23 6.25-7.5l1.75-2.29h-27.35zm165.68-361.51c0.41-0.02 3.11 2.56 6 5.74 2.89 3.17 7.33 8.46 9.88 11.75 2.55 3.29 7.01 9.8 9.93 14.48 2.91 4.67 7.4 13 9.98 18.5 2.57 5.5 5.83 13.37 7.23 17.5 1.41 4.12 3.53 11.32 4.73 16 1.19 4.67 2.79 13.22 3.56 19 0.77 5.77 1.4 15.9 1.41 22.5 0.01 6.6-0.45 16.05-1.02 21-0.57 4.95-1.73 12.37-2.58 16.5-0.84 4.12-3.13 12.45-5.07 18.5-1.94 6.05-5.91 15.95-8.81 22-2.9 6.05-7.95 15.05-11.22 20-3.26 4.95-8.67 12.37-12.02 16.5-3.34 4.12-8.03 9.4-14.75 15.98l-18.61-18.48 7.64-8.5c4.2-4.68 10.35-12.55 13.67-17.5 3.32-4.95 7.96-12.83 10.31-17.5 2.35-4.68 5.86-13.23 7.79-19 1.93-5.78 4.27-13.88 5.2-18 1.05-4.72 1.87-14.18 2.21-25.5 0.41-14.03 0.16-20.43-1.16-29-0.93-6.05-3.4-16.18-5.5-22.5-2.09-6.33-5.94-15.78-8.55-21-2.61-5.23-6.64-12.43-8.94-16-2.31-3.58-7.65-10.67-11.88-15.75-4.22-5.09-7.68-9.48-7.68-9.75 0-0.28 3.94-4.31 8.75-8.97 4.81-4.66 9.09-8.48 9.5-8.5zm-32.02 30.97c0.42 0 3.31 2.81 6.42 6.25 3.12 3.43 7.92 9.62 10.68 13.75 2.77 4.12 6.93 11.32 9.25 16 2.32 4.67 5.42 11.87 6.87 16 1.46 4.12 3.53 11.88 4.6 17.25 1.46 7.3 1.95 13.89 1.95 26.25 0 12.89-0.46 18.74-2.11 26.75-1.16 5.63-3.25 13.4-4.63 17.25-1.38 3.85-4.67 11.27-7.3 16.5-2.62 5.22-7 12.65-9.73 16.5-2.72 3.85-7.94 10.15-18.22 21l-17.01-17.5 4.51-5.25c2.48-2.89 6.49-7.95 8.9-11.25 2.41-3.3 5.99-8.93 7.95-12.5 1.97-3.58 4.94-10.22 6.61-14.75 1.66-4.54 3.71-12.19 4.54-17 0.83-4.82 1.51-13.93 1.51-20.25 0-6.33-0.67-15.1-1.49-19.5-0.82-4.4-2.57-11.15-3.87-15-1.31-3.85-3.97-10.15-5.93-14-1.95-3.85-5.73-10.01-8.39-13.68-2.66-3.67-6.64-8.76-12.84-15.94l8.48-8.44c4.66-4.65 8.82-8.44 9.25-8.44zm-32.01 32c0.43 0 3.21 3.03 6.19 6.75 2.97 3.71 7.23 10.12 9.46 14.25 2.23 4.12 5.2 10.87 6.6 15 1.39 4.12 3.05 11.1 3.67 15.5 0.66 4.57 0.88 12.07 0.53 17.5-0.35 5.37-1.72 13.29-3.15 18.25-1.38 4.81-3.93 11.56-5.65 15-1.73 3.43-4.52 8.27-6.2 10.75-1.69 2.47-5.56 7.1-14.17 16.07l-15.3-15.57 5.98-7c3.29-3.85 7.5-10.15 9.35-14 1.85-3.85 4.07-9.7 4.92-13 0.91-3.49 1.56-10.19 1.56-16 0-5.73-0.66-12.57-1.54-16-0.84-3.3-3.02-9.15-4.83-13-1.82-3.85-5.4-9.59-7.97-12.75-2.57-3.17-4.77-6.08-4.9-6.48-0.12-0.4 3.13-4 7.23-8 4.09-4 7.8-7.27 8.22-7.27zm-364.81 5h115.59v45l-95.11 0.5 51.61 80.99 0.5-50.49h43v102h-26c-14.3 0-26 0.22-26 0.5 0 0.27 14.31 17.48 31.8 38.25 17.49 20.76 32.16 38.42 32.62 39.25 0.61 1.12-2.7 4.99-13.05 15.25-13.45 13.33-13.77 13.75-7.37 13.75v86l-22.5-0.01-23.26-23.49-9.12 11.75c-5.02 6.46-9.23 11.75-9.37 11.76-0.14 0.01-4.16-2.8-17.63-12.51l20.15-26-9.27-8.5 13.5-17.04 2.5 2.3c1.37 1.26 3.51 3.07 4.75 4.01 2.24 1.72 2.29 1.67 12.58-11.52 5.68-7.29 10.63-13.82 11-14.5 0.52-0.98-3.24-1.25-35.33-1.25v21h-23l0.04 56.5 17.04 13-0.04 13.25c-0.03 9.91-0.36 13.25-1.29 13.24-0.69 0-8.23-5.42-16.75-12.04-8.53-6.63-16.51-12.93-20-15.95v-68h-20l0.5-21.5 15-0.56-13.87-13.72c-10.46-10.35-13.66-14.09-13.02-15.22 0.47-0.83 16.95-20.52 36.62-43.75 19.67-23.24 36.01-42.82 36.31-43.5 0.3-0.69-16.82-27.8-38.05-60.25-25.03-38.26-38.37-59.53-37.95-60.5 0.35-0.83 7.89-11.97 16.75-24.75zm15.94 254.75c-0.27 0.98 6.84 1.25 33.15 1.25 26.32 0 33.43-0.27 33.16-1.25-0.19-0.69-7.51-9.66-16.25-19.94-8.75-10.28-16.36-18.69-16.91-18.69-0.55 0-8.15 8.41-16.9 18.69-8.74 10.28-16.06 19.25-16.25 19.94zm58.15 75.46l12.51 12.29c0-20.54-0.18-26.5-0.4-26.5-0.22 0-3.04 3.19-6.25 7.1zm79-165.13l74.5-0.08v30h-20.34c-11.18 0-20.63 0.22-21 0.5-0.36 0.27 10.92 13.13 25.09 28.57 14.16 15.44 25.88 28.38 26.04 28.75 0.16 0.37-5.76 7.65-13.15 16.18-12.91 14.88-13.33 15.52-8.14 16.52l0.25 52.74c0.13 29.01-0.09 52.76-0.5 52.78-0.42 0.03-5.14-3.8-20.25-17.04l-0.08-28.5-19.42-22.88-0.5 48.38h-21v-74l-4.25-5.45c-3.56-4.55-4.78-5.45-10.75-5.55v85h-21l-0.07-87.5 20.57-27.47 26.25-0.02c16.82-0.01 26.25-0.37 26.25-1.01 0-0.55-12.6-14.95-28-32-15.4-17.05-27.89-31.39-27.75-31.86 0.13-0.47 4.07-6.53 8.75-13.46zm31.58 136.72c5.73 6.76 10.53 12.27 10.67 12.25 0.13-0.03 0.25-6.35 0.25-14.05v-14c-23.93-0.06-24.43 0.02-22.92 1.72 0.87 0.98 6.27 7.31 12 14.08zm-324.08-16.8v22h-19l0.04 56.5 17.04 13-0.04 13.25c-0.03 9.92-0.36 13.25-1.29 13.25-0.69 0-8.23-5.42-16.75-12.05-8.53-6.62-16.52-12.92-20-15.95v-68h-20l-0.17-10.33c-0.09-5.68 0.21-10.63 0.67-11 0.45-0.37 14.03-0.67 59.5-0.67zm523 0l24.5 29.36 1-28.86h20l0.25 52.75c0.13 29.02-0.09 52.77-0.5 52.8-0.42 0.02-5.14-3.81-20.25-17.05l-0.08-28.5-19.42-22.88-0.5 48.38h-21l-0.09-74.5-3.91-4.5c-2.16-2.47-3.94-5.06-3.96-5.75-0.03-0.93 3-1.25 23.96-1.25z"/>
</svg>